<?xml version="1.0" encoding="utf-8"?>
<!-- Generator: Adobe Illustrator 16.0.0, SVG Export Plug-In . SVG Version: 6.00 Build 0)  -->
<!DOCTYPE svg PUBLIC "-//W3C//DTD SVG 1.1//EN" "http://www.w3.org/Graphics/SVG/1.1/DTD/svg11.dtd">
<svg version="1.1" id="Layer_1" xmlns="http://www.w3.org/2000/svg" xmlns:xlink="http://www.w3.org/1999/xlink" x="0px" y="0px"
	 width="922.973px" height="174.324px" viewBox="0 0 922.973 174.324" enable-background="new 0 0 922.973 174.324"
	 xml:space="preserve">
<g>
	<g>
		<path fill="#FFFFFF" d="M148.738,38.381c-9.28,5.041-17.636,11.33-24.215,19.649c-6.196,7.836-10.232,17.039-13.42,26.439
			c-1.039,3.062,3.792,4.365,4.821,1.329c3.063-9.03,6.99-17.726,12.937-25.247c6.013-7.604,13.947-13.262,22.401-17.854
			C154.096,41.16,151.572,36.842,148.738,38.381L148.738,38.381z"/>
	</g>
</g>
<g>
	<g>
		<path fill="#FFFFFF" d="M167.568,126.824c4.492,0.07,8.617,1.206,12.849,2.613c3.068,1.021,4.373-3.809,1.329-4.821
			c-4.651-1.547-9.247-2.715-14.178-2.792C164.342,121.773,164.347,126.773,167.568,126.824L167.568,126.824z"/>
	</g>
</g>
<g>
	<g>
		<path fill="#FFFFFF" d="M235.135,55.607c-0.901,0-1.802,0-2.703,0c-1.363,0-2.5,1.137-2.5,2.5s1.137,2.5,2.5,2.5
			c0.901,0,1.802,0,2.703,0c1.363,0,2.5-1.137,2.5-2.5S236.498,55.607,235.135,55.607L235.135,55.607z"/>
	</g>
</g>
<g>
	<g>
		<path fill="#FFFFFF" d="M229.73,59.256c3.224,0,3.224-5,0-5S226.506,59.256,229.73,59.256L229.73,59.256z"/>
	</g>
</g>
<g>
	<g>
		<path fill="#FFFFFF" d="M243.93,67.275c4.467,1.489,8.948,2.895,13.514,4.054c3.127,0.794,4.453-4.028,1.329-4.821
			c-4.565-1.159-9.046-2.565-13.514-4.054C242.191,61.431,240.887,66.261,243.93,67.275L243.93,67.275z"/>
	</g>
</g>
<g>
	<g>
		<path fill="#FFFFFF" d="M163.514,18.716c3.224,0,3.224-5,0-5S160.29,18.716,163.514,18.716L163.514,18.716z"/>
	</g>
</g>
<g>
	<g>
		<path fill="#FFFFFF" d="M163.514,18.716c3.224,0,3.224-5,0-5S160.29,18.716,163.514,18.716L163.514,18.716z"/>
	</g>
</g>
<g>
	<g>
		<path fill="#FFFFFF" d="M163.514,18.716c3.224,0,3.224-5,0-5S160.29,18.716,163.514,18.716L163.514,18.716z"/>
	</g>
</g>
<g>
	<g>
		<path fill="#FFFFFF" d="M100,107.905c3.224,0,3.224-5,0-5S96.776,107.905,100,107.905L100,107.905z"/>
	</g>
</g>
<g>
	<g>
		<path fill="#FFFFFF" d="M154.144,31.888c17.284,9.168,36.251,14.925,52.703,25.676c2.708,1.77,5.21-2.562,2.523-4.317
			c-16.451-10.75-35.419-16.508-52.703-25.676C153.821,26.061,151.295,30.376,154.144,31.888L154.144,31.888z"/>
	</g>
</g>
<rect fill="#0C2626" width="922.973" height="166.216"/>
<rect x="0" y="163.514" fill="#B4805A" width="922.974" height="10.811"/>
</svg>
