<svg width="632" height="144" viewBox="0 0 632 144" fill="none" xmlns="http://www.w3.org/2000/svg">
<path d="M3.15 141.787C2.35 141.787 1.6 141.487 0.9 140.887C0.3 140.287 0 139.537 0 138.637C0 138.237 0.1 137.787 0.3 137.287L36.45 40.5373C36.75 39.5373 37.3 38.6873 38.1 37.9873C39 37.1873 40.2 36.7873 41.7 36.7873H58.05C59.55 36.7873 60.7 37.1873 61.5 37.9873C62.3 38.6873 62.9 39.5373 63.3 40.5373L99.45 137.287C99.55 137.787 99.6 138.237 99.6 138.637C99.6 139.537 99.3 140.287 98.7 140.887C98.1 141.487 97.4 141.787 96.6 141.787H83.55C82.15 141.787 81.1 141.487 80.4 140.887C79.8 140.187 79.4 139.537 79.2 138.937L72.15 120.637H27.6L20.55 138.937C20.35 139.537 19.9 140.187 19.2 140.887C18.6 141.487 17.6 141.787 16.2 141.787H3.15ZM32.85 103.387H66.9L49.8 57.0373L32.85 103.387Z" fill="white"/>
<path d="M109.2 141.787C108.2 141.787 107.35 141.437 106.65 140.737C105.95 140.037 105.6 139.187 105.6 138.187V40.3873C105.6 39.3873 105.95 38.5373 106.65 37.8373C107.35 37.1373 108.2 36.7873 109.2 36.7873H123.15C124.15 36.7873 125 37.1373 125.7 37.8373C126.4 38.5373 126.75 39.3873 126.75 40.3873V123.937H174.3C175.4 123.937 176.3 124.287 177 124.987C177.7 125.687 178.05 126.587 178.05 127.687V138.187C178.05 139.187 177.7 140.037 177 140.737C176.3 141.437 175.4 141.787 174.3 141.787H109.2Z" fill="white"/>
<path d="M223.468 143.287C214.768 143.287 207.218 141.837 200.818 138.937C194.418 135.937 189.468 131.387 185.968 125.287C182.468 119.087 180.718 111.187 180.718 101.587V40.5373C180.718 39.4373 181.068 38.5373 181.768 37.8373C182.468 37.1373 183.318 36.7873 184.318 36.7873H197.968C199.068 36.7873 199.918 37.1373 200.518 37.8373C201.218 38.5373 201.568 39.4373 201.568 40.5373V101.587C201.568 109.787 203.518 115.887 207.418 119.887C211.318 123.787 216.668 125.737 223.468 125.737C230.268 125.737 235.568 123.787 239.368 119.887C243.268 115.887 245.218 109.787 245.218 101.587V40.5373C245.218 39.4373 245.568 38.5373 246.268 37.8373C246.968 37.1373 247.868 36.7873 248.968 36.7873H262.468C263.568 36.7873 264.418 37.1373 265.018 37.8373C265.718 38.5373 266.068 39.4373 266.068 40.5373V101.587C266.068 111.187 264.318 119.087 260.818 125.287C257.418 131.387 252.518 135.937 246.118 138.937C239.818 141.837 232.268 143.287 223.468 143.287Z" fill="white"/>
<path d="M460.85 143.287C452.15 143.287 444.6 141.837 438.2 138.937C431.8 135.937 426.85 131.387 423.35 125.287C419.85 119.087 418.1 111.187 418.1 101.587V40.5373C418.1 39.4373 418.45 38.5373 419.15 37.8373C419.85 37.1373 420.7 36.7873 421.7 36.7873H435.35C436.45 36.7873 437.3 37.1373 437.9 37.8373C438.6 38.5373 438.95 39.4373 438.95 40.5373V101.587C438.95 109.787 440.9 115.887 444.8 119.887C448.7 123.787 454.05 125.737 460.85 125.737C467.65 125.737 472.95 123.787 476.75 119.887C480.65 115.887 482.6 109.787 482.6 101.587V40.5373C482.6 39.4373 482.95 38.5373 483.65 37.8373C484.35 37.1373 485.25 36.7873 486.35 36.7873H499.85C500.95 36.7873 501.8 37.1373 502.4 37.8373C503.1 38.5373 503.45 39.4373 503.45 40.5373V101.587C503.45 111.187 501.7 119.087 498.2 125.287C494.8 131.387 489.9 135.937 483.5 138.937C477.2 141.837 469.65 143.287 460.85 143.287Z" fill="white"/>
<path d="M550.85 143.287C541.55 143.287 533.75 141.937 527.45 139.237C521.25 136.437 516.5 132.837 513.2 128.437C510 123.937 508.3 119.237 508.1 114.337C508.1 113.437 508.4 112.687 509 112.087C509.6 111.487 510.35 111.187 511.25 111.187H524.6C525.9 111.187 526.85 111.487 527.45 112.087C528.15 112.587 528.75 113.237 529.25 114.037C529.85 115.937 531 117.837 532.7 119.737C534.4 121.537 536.7 123.037 539.6 124.237C542.6 125.437 546.35 126.037 550.85 126.037C558.05 126.037 563.4 124.837 566.9 122.437C570.5 120.037 572.3 116.787 572.3 112.687C572.3 109.787 571.35 107.487 569.45 105.787C567.55 103.987 564.6 102.387 560.6 100.987C556.7 99.4873 551.5 97.9373 545 96.3373C537.5 94.5373 531.2 92.3873 526.1 89.8873C521.1 87.2873 517.3 84.0373 514.7 80.1373C512.2 76.2373 510.95 71.2873 510.95 65.2873C510.95 59.4873 512.5 54.3373 515.6 49.8373C518.8 45.3373 523.3 41.7873 529.1 39.1873C535 36.5873 542 35.2873 550.1 35.2873C556.6 35.2873 562.35 36.1873 567.35 37.9873C572.35 39.6873 576.5 41.9873 579.8 44.8873C583.1 47.6873 585.6 50.7373 587.3 54.0373C589.1 57.2373 590.05 60.3873 590.15 63.4873C590.15 64.2873 589.85 65.0373 589.25 65.7373C588.75 66.3373 588 66.6373 587 66.6373H573.05C572.25 66.6373 571.45 66.4373 570.65 66.0373C569.85 65.6373 569.2 64.8873 568.7 63.7873C568.1 60.6873 566.15 58.0373 562.85 55.8373C559.55 53.6373 555.3 52.5373 550.1 52.5373C544.7 52.5373 540.35 53.5373 537.05 55.5373C533.75 57.5373 532.1 60.6373 532.1 64.8373C532.1 67.6373 532.9 69.9873 534.5 71.8873C536.2 73.6873 538.85 75.2873 542.45 76.6873C546.15 78.0873 551 79.5873 557 81.1873C565.5 83.0873 572.45 85.2873 577.85 87.7873C583.25 90.2873 587.2 93.4873 589.7 97.3873C592.2 101.187 593.45 106.037 593.45 111.937C593.45 118.537 591.65 124.187 588.05 128.887C584.55 133.487 579.6 137.037 573.2 139.537C566.8 142.037 559.35 143.287 550.85 143.287Z" fill="white"/>
<path d="M604.25 48.06C603.59 48.06 603.05 47.85 602.63 47.43C602.21 47.01 602 46.47 602 45.81V28.8H585.35C584.69 28.8 584.15 28.59 583.73 28.17C583.31 27.75 583.1 27.24 583.1 26.64V20.97C583.1 20.31 583.31 19.77 583.73 19.35C584.15 18.93 584.69 18.72 585.35 18.72H602V2.24998C602 1.58998 602.21 1.04999 602.63 0.629988C603.05 0.209986 603.59 -1.45274e-05 604.25 -1.45274e-05H610.46C611.12 -1.45274e-05 611.66 0.209986 612.08 0.629988C612.5 1.04999 612.71 1.58998 612.71 2.24998V18.72H629.36C629.96 18.72 630.47 18.93 630.89 19.35C631.31 19.77 631.52 20.31 631.52 20.97V26.64C631.52 27.24 631.31 27.75 630.89 28.17C630.47 28.59 629.96 28.8 629.36 28.8H612.71V45.81C612.71 46.47 612.5 47.01 612.08 47.43C611.66 47.85 611.12 48.06 610.46 48.06H604.25Z" fill="white"/>
<path d="M268.75 39.6373L297.7 93.6373L326.95 39.6373C327.15 39.2373 327.6 38.6873 328.3 37.9873C329 37.1873 330.05 36.7873 331.45 36.7873H343.15C344.25 36.7873 345.15 37.1373 345.85 37.8373C346.55 38.5373 346.9 39.4373 346.9 40.5373V138.187C346.9 139.187 346.55 140.037 345.85 140.737C345.15 141.437 344.25 141.787 343.15 141.787H330.55C329.45 141.787 328.55 141.437 327.85 140.737C327.25 140.037 326.95 139.187 326.95 138.187V73.2373L305.95 113.287C305.45 114.187 304.8 114.987 304 115.687C303.2 116.287 302.15 116.587 300.85 116.587H294.7C293.3 116.587 292.2 116.287 291.4 115.687C290.7 114.987 290.1 114.187 289.6 113.287L268.6 73.2373V39.3793C268.66 39.4713 268.71 39.5573 268.75 39.6373Z" fill="white"/>
<path d="M391.85 106.387V40.5373C391.85 39.4373 392.15 38.5373 392.75 37.8373C393.45 37.1373 394.35 36.7873 395.45 36.7873H408.05C409.15 36.7873 410.05 37.1373 410.75 37.8373C411.45 38.5373 411.8 39.4373 411.8 40.5373V138.037C411.8 139.137 411.45 140.037 410.75 140.737C410.05 141.437 409.2 141.787 408.2 141.787H396.5C395.1 141.787 394.1 141.437 393.5 140.737C392.9 140.037 392.45 139.587 392.15 139.387L349.1 73.6873V39.8873L391.85 106.387Z" fill="white"/>
</svg>
