<svg xmlns="http://www.w3.org/2000/svg" xmlns:xlink="http://www.w3.org/1999/xlink" style="margin:auto;background:transparent;display:block;z-index:1;position:relative" width="1360" height="696" preserveAspectRatio="xMidYMid" viewBox="0 0 1360 696">
  <g transform="translate(680,348) scale(1,1) translate(-680,-348)">
    <g transform="translate(955.0657780874822,148.15301422055913) scale(100)" opacity="0.36">
      <path d="M3.264 0 C3.264 1.0199999999999998 3.22157849508591 1.7790806614653532 2.500329578275632 2.5003295782756316 S1.02 3.264 1.9986235762084802e-16 3.264 S-1.7790806614653532 3.22157849508591 -2.5003295782756316 2.500329578275632 S-3.264 1.0200000000000002 -3.264 3.9972471524169604e-16 S-3.221578495085911 -1.7790806614653532 -2.5003295782756325 -2.5003295782756316 S-1.0200000000000005 -3.264 -5.995870728625441e-16 -3.264 S1.7790806614653532 -3.2215784950859105 2.5003295782756316 -2.5003295782756325 S3.2639999999999993 -1.0200000000000007 3.264 -7.994494304833921e-16" fill="#af12b5" stroke-width="0">
        <animateTransform attributeName="transform" type="rotate" dur="10s" repeatCount="indefinite" values="0;90"></animateTransform>
      </path>
    </g>
    <g transform="translate(1010.0789337049786,108.18361706467095) scale(100)" opacity="0.36">
      <path d="M3.9168 0 C3.9168 1.2239999999999998 3.8658941941030927 2.1348967937584242 3.0003954939307587 3.000395493930758 S1.224 3.9168 2.398348291450176e-16 3.9168 S-2.1348967937584242 3.8658941941030927 -3.000395493930758 3.0003954939307587 S-3.9168 1.2240000000000002 -3.9168 4.796696582900352e-16 S-3.865894194103093 -2.134896793758424 -3.000395493930759 -3.000395493930758 S-1.2240000000000004 -3.9167999999999994 -7.195044874350529e-16 -3.9168 S2.134896793758424 -3.8658941941030927 3.0003954939307578 -3.000395493930759 S3.9167999999999994 -1.2240000000000006 3.9168 -9.593393165800705e-16" fill="#5960cf" stroke-width="0">
        <animateTransform attributeName="transform" type="rotate" dur="5s" repeatCount="indefinite" values="0;90"></animateTransform>
      </path>
    </g>
    <g transform="translate(1142.11050718697,12.25706389053937) scale(100)" opacity="0.36">
      <path d="M5.4835199999999995 0 C5.4835199999999995 1.7135999999999996 5.4122518717443295 2.988855511261794 4.200553691503062 4.200553691503061 S1.7136 5.4835199999999995 3.3576876080302466e-16 5.4835199999999995 S-2.988855511261794 5.4122518717443295 -4.200553691503061 4.200553691503062 S-5.4835199999999995 1.7136000000000002 -5.4835199999999995 6.715375216060493e-16 S-5.41225187174433 -2.9888555112617934 -4.200553691503063 -4.200553691503061 S-1.7136000000000007 -5.4835199999999995 -1.007306282409074e-15 -5.4835199999999995 S2.9888555112617925 -5.41225187174433 4.20055369150306 -4.200553691503063 S5.4835199999999995 -1.713600000000001 5.4835199999999995 -1.3430750432120987e-15" fill="#0077b6" stroke-width="0">
        <animateTransform attributeName="transform" type="rotate" dur="3.3333333333333335s" repeatCount="indefinite" values="0;90"></animateTransform>
      </path>
    </g>
  </g>
</svg>