<svg width="459" height="103" viewBox="0 0 459 103" fill="none" xmlns="http://www.w3.org/2000/svg">
<path d="M2.28128 101.922C1.7019 101.922 1.15874 101.706 0.651793 101.275C0.217264 100.844 0 100.304 0 99.6575C0 99.3699 0.0724215 99.0464 0.217264 98.687L26.3976 29.14C26.6149 28.4211 27.0132 27.8101 27.5926 27.3069C28.2444 26.7319 29.1134 26.4443 30.1998 26.4443H42.0407C43.127 26.4443 43.9598 26.7319 44.5392 27.3069C45.1186 27.8101 45.5531 28.4211 45.8428 29.14L72.0232 98.687C72.0956 99.0464 72.1318 99.3699 72.1318 99.6575C72.1318 100.304 71.9145 100.844 71.48 101.275C71.0455 101.706 70.5385 101.922 69.9591 101.922H60.5081C59.4942 101.922 58.7338 101.706 58.2269 101.275C57.7923 100.772 57.5027 100.304 57.3578 99.8731L52.2521 86.7184H19.9883L14.8826 99.8731C14.7378 100.304 14.4119 100.772 13.9049 101.275C13.4704 101.706 12.7462 101.922 11.7323 101.922H2.28128ZM23.7905 74.3186H48.45L36.0659 41.0007L23.7905 74.3186Z" fill="#252525"/>
<path d="M79.0843 101.922C78.36 101.922 77.7445 101.67 77.2375 101.167C76.7306 100.664 76.4771 100.053 76.4771 99.334V29.0321C76.4771 28.3133 76.7306 27.7023 77.2375 27.1991C77.7445 26.6959 78.36 26.4443 79.0843 26.4443H89.187C89.9113 26.4443 90.5269 26.6959 91.0338 27.1991C91.5408 27.7023 91.7942 28.3133 91.7942 29.0321V89.0906H126.231C127.027 89.0906 127.679 89.3422 128.186 89.8454C128.693 90.3485 128.946 90.9955 128.946 91.7862V99.334C128.946 100.053 128.693 100.664 128.186 101.167C127.679 101.67 127.027 101.922 126.231 101.922H79.0843Z" fill="#252525"/>
<path d="M161.839 103C155.538 103 150.071 101.958 145.436 99.8731C140.801 97.7166 137.216 94.4459 134.681 90.061C132.146 85.6043 130.879 79.9255 130.879 73.0247V29.14C130.879 28.3492 131.132 27.7023 131.639 27.1991C132.146 26.6959 132.762 26.4443 133.486 26.4443H143.372C144.168 26.4443 144.784 26.6959 145.218 27.1991C145.725 27.7023 145.979 28.3492 145.979 29.14V73.0247C145.979 78.9191 147.391 83.304 150.215 86.1793C153.04 88.9828 156.914 90.3845 161.839 90.3845C166.764 90.3845 170.602 88.9828 173.354 86.1793C176.179 83.304 177.591 78.9191 177.591 73.0247V29.14C177.591 28.3492 177.844 27.7023 178.351 27.1991C178.858 26.6959 179.51 26.4443 180.307 26.4443H190.083C190.88 26.4443 191.496 26.6959 191.93 27.1991C192.437 27.7023 192.691 28.3492 192.691 29.14V73.0247C192.691 79.9255 191.423 85.6043 188.888 90.061C186.426 94.4459 182.878 97.7166 178.243 99.8731C173.68 101.958 168.212 103 161.839 103Z" fill="#252525"/>
<path d="M333.754 103C327.454 103 321.986 101.958 317.351 99.8731C312.716 97.7166 309.131 94.4459 306.596 90.061C304.062 85.6043 302.794 79.9255 302.794 73.0247V29.14C302.794 28.3492 303.048 27.7023 303.555 27.1991C304.062 26.6959 304.677 26.4443 305.401 26.4443H315.287C316.084 26.4443 316.699 26.6959 317.134 27.1991C317.641 27.7023 317.894 28.3492 317.894 29.14V73.0247C317.894 78.9191 319.306 83.304 322.131 86.1793C324.955 88.9828 328.83 90.3845 333.754 90.3845C338.679 90.3845 342.517 88.9828 345.269 86.1793C348.094 83.304 349.506 78.9191 349.506 73.0247V29.14C349.506 28.3492 349.76 27.7023 350.266 27.1991C350.773 26.6959 351.425 26.4443 352.222 26.4443H361.999C362.795 26.4443 363.411 26.6959 363.846 27.1991C364.352 27.7023 364.606 28.3492 364.606 29.14V73.0247C364.606 79.9255 363.339 85.6043 360.804 90.061C358.341 94.4459 354.793 97.7166 350.158 99.8731C345.595 101.958 340.127 103 333.754 103Z" fill="#252525"/>
<path d="M398.934 103C392.198 103 386.55 102.03 381.987 100.089C377.497 98.076 374.057 95.4882 371.667 92.3253C369.35 89.0906 368.118 85.7121 367.973 82.1898C367.973 81.5428 368.191 81.0037 368.625 80.5724C369.06 80.1411 369.603 79.9255 370.255 79.9255H379.923C380.865 79.9255 381.553 80.1411 381.987 80.5724C382.494 80.9318 382.929 81.3991 383.291 81.9741C383.725 83.3399 384.558 84.7057 385.789 86.0715C387.02 87.3654 388.686 88.4436 390.786 89.3062C392.959 90.1688 395.675 90.6001 398.934 90.6001C404.148 90.6001 408.023 89.7375 410.557 88.0123C413.165 86.2871 414.468 83.9509 414.468 81.0037C414.468 78.9191 413.78 77.2658 412.404 76.0438C411.028 74.7499 408.892 73.5997 405.995 72.5934C403.17 71.5151 399.404 70.4009 394.697 69.2508C389.265 67.9569 384.703 66.4114 381.009 64.6143C377.388 62.7454 374.636 60.4092 372.753 57.6057C370.943 54.8023 370.038 51.244 370.038 46.931C370.038 42.7618 371.16 39.0598 373.405 35.8251C375.723 32.5903 378.982 30.0385 383.182 28.1695C387.455 26.3006 392.524 25.3661 398.391 25.3661C403.098 25.3661 407.262 26.013 410.883 27.3069C414.504 28.5289 417.51 30.1823 419.9 32.2669C422.29 34.2796 424.1 36.472 425.331 38.8442C426.635 41.1445 427.323 43.4088 427.395 45.6372C427.395 46.2122 427.178 46.7513 426.744 47.2545C426.381 47.6858 425.838 47.9015 425.114 47.9015H415.011C414.432 47.9015 413.853 47.7577 413.273 47.4702C412.694 47.1826 412.223 46.6435 411.861 45.8528C411.426 43.6244 410.014 41.7195 407.624 40.1381C405.234 38.5567 402.156 37.7659 398.391 37.7659C394.48 37.7659 391.329 38.4848 388.94 39.9224C386.55 41.3601 385.355 43.5885 385.355 46.6076C385.355 48.6203 385.934 50.3096 387.093 51.6753C388.324 52.9692 390.243 54.1194 392.85 55.1257C395.53 56.1321 399.042 57.2104 403.388 58.3605C409.543 59.7263 414.577 61.3077 418.487 63.1048C422.398 64.9019 425.259 67.2021 427.069 70.0056C428.88 72.7371 429.785 76.2235 429.785 80.4646C429.785 85.2089 428.482 89.2703 425.875 92.6488C423.34 95.9554 419.755 98.5073 415.12 100.304C410.485 102.101 405.089 103 398.934 103Z" fill="#252525"/>
<path d="M439.251 34.2433C438.773 34.2433 438.382 34.0923 438.077 33.7904C437.773 33.4885 437.621 33.1003 437.621 32.6259V20.7024H425.201C424.723 20.7024 424.332 20.5514 424.028 20.2495C423.724 19.9476 423.571 19.581 423.571 19.1497V15.0739C423.571 14.5995 423.724 14.2113 424.028 13.9094C424.332 13.6075 424.723 13.4565 425.201 13.4565H437.621V1.61737C437.621 1.14294 437.773 0.754775 438.077 0.452866C438.382 0.150955 438.773 0 439.251 0H443.748C444.226 0 444.617 0.150955 444.921 0.452866C445.225 0.754775 445.378 1.14294 445.378 1.61737V13.4565H457.436C457.87 13.4565 458.24 13.6075 458.544 13.9094C458.848 14.2113 459 14.5995 459 15.0739V19.1497C459 19.581 458.848 19.9476 458.544 20.2495C458.24 20.5514 457.87 20.7024 457.436 20.7024H445.378V32.6259C445.378 33.1003 445.225 33.4885 444.921 33.7904C444.617 34.0923 444.226 34.2433 443.748 34.2433H439.251Z" fill="#252525"/>
<path d="M215.599 67.31L236.782 28.493C236.927 28.2055 237.253 27.8101 237.76 27.3069C238.267 26.7319 239.027 26.4443 240.041 26.4443H248.514C249.311 26.4443 249.963 26.6959 250.47 27.1991C250.977 27.7023 251.23 28.3492 251.23 29.14V99.334C251.23 100.053 250.977 100.664 250.47 101.167C249.963 101.67 249.311 101.922 248.514 101.922H239.389C238.593 101.922 237.941 101.67 237.434 101.167C236.999 100.664 236.782 100.053 236.782 99.334V52.6458L221.574 81.435C221.211 82.082 220.741 82.657 220.161 83.1602C219.582 83.5915 218.822 83.8072 217.88 83.8072H213.426C212.412 83.8072 211.616 83.5915 211.036 83.1602C210.529 82.657 210.095 82.082 209.733 81.435L197.88 58.9977V34.5044L215.599 67.31Z" fill="#252525"/>
<path d="M283.784 76.4751V29.14C283.784 28.3492 284.001 27.7023 284.435 27.1991C284.942 26.6959 285.594 26.4443 286.391 26.4443H295.516C296.312 26.4443 296.964 26.6959 297.471 27.1991C297.978 27.7023 298.232 28.3492 298.232 29.14V99.2262C298.232 100.017 297.978 100.664 297.471 101.167C296.964 101.67 296.349 101.922 295.624 101.922H287.151C286.137 101.922 285.413 101.67 284.979 101.167C284.544 100.664 284.218 100.34 284.001 100.197L256.01 57.7962V33.5927L283.784 76.4751Z" fill="#252525"/>
</svg>
