<svg xmlns="http://www.w3.org/2000/svg" version="1.1" xmlns:xlink="http://www.w3.org/1999/xlink" xmlns:svgjs="http://svgjs.dev/svgjs" viewBox="0 0 800 800"><defs><linearGradient x1="50%" y1="0%" x2="50%" y2="100%" id="uundulate-grad"><stop stop-color="hsl(162, 100%, 58%)" stop-opacity="1" offset="45%"></stop><stop stop-color="hsl(270, 73%, 53%)" stop-opacity="1" offset="100%"></stop></linearGradient></defs><g stroke-width="2" stroke="url(#uundulate-grad)" fill="none"><path d="M662.313486495464 249.83646707848652C696.92589210697 387.77638850510266 657.5261797769955 640.6295622412108 582.8003022875087 719.152282887079C508.07442479802194 797.6750035329471 390.37390814904404 661.5232193243328 303.6292745459275 626.7455261786542C216.8846409428109 591.9678330329757 202.92683977050405 599.2961629500279 166.42606099254937 552.2193557878227C129.9252822145947 505.14254862561756 118.47484940573872 459.50943604504425 128.4255364117455 400.7768518000687C138.37622341775221 342.04426755509314 154.14035467543687 341.9146580287629 214.18935862138142 270.30295141194074C274.238362567326 198.69124479511856 323.301562045179 61.30451094212464 416.66075535227947 57.04066003932172C510.0199486593798 52.77680913651881 627.701080883958 111.89654565187027 662.313486495464 249.83646707848652C696.92589210697 387.77638850510266 657.5261797769955 640.6295622412108 582.8003022875087 719.152282887079 "></path><path d="M650.3900851650593 256.66205169370437C683.4291996124059 388.331976691838 645.8203832974302 629.6918243490322 574.4911366029203 704.6453304200882C503.1618899084101 779.5988364911441 390.81139674347673 649.6357697465577 308.00970103141094 616.4388808347736C225.20800531934503 583.2419919229897 211.88464965487032 590.2372159347212 177.04299718500448 545.3002636435253C142.20134471513865 500.36331135232956 131.2713861248671 456.8044311617823 140.76976917605532 400.74150983703294C150.2681522272436 344.67858851228357 165.3157320641244 344.5548703280592 222.63523583070787 276.19824128472897C279.95473959729134 207.8416122413987 326.78779364433285 76.6997299271772 415.90338725565596 72.62969042904712C505.01898086697906 68.55965093091709 617.3509707177127 124.99212669557079 650.3900851650593 256.66205169370437C683.4291996124059 388.331976691838 645.8203832974302 629.6918243490322 574.4911366029203 704.6453304200882 "></path><path d="M638.4667601286001 263.4876973440786C669.9325834117873 388.8876259137297 634.1146631118105 618.7541474920099 566.1820472122771 690.1384389882537C498.2494313127437 761.5227304844974 391.2489616318546 637.748381203939 312.3902038108396 606.1322965260493C233.53144598982453 574.5162118481597 220.84253583318196 581.1783299545708 187.66000967140496 538.3812325343843C154.47748350962797 495.5841351141978 144.06799913794077 454.0994873136766 153.1140782343105 400.7062289091534C162.16015733068025 347.31297050463013 176.49118574675725 347.1951436625118 231.08118933397958 282.09359219267344C285.67119292120196 216.99204072283504 330.274101537432 92.09500994738602 415.14609545297776 88.21878185392882C500.01808936852353 84.34255376047162 607.0009368454128 138.08776877442756 638.4667601286001 263.4876973440786C669.9325834117873 388.8876259137297 634.1146631118105 618.7541474920099 566.1820472122771 690.1384389882537 "></path><path d="M626.5434198333517 270.31328195929655C656.4359519523796 389.4432141004652 622.4089276674016 607.8164095998313 557.8729425628449 675.6314865212629C493.3369574582881 743.4465634426945 391.68651126144357 625.8609316261638 316.77069133147927 595.8256511821687C241.85487140151497 565.7903707381736 229.80040675270448 572.1193829392641 198.27700689901633 531.4621403900869C166.75360704532818 490.8048978409098 156.86459689222534 451.39448243041466 165.45837203377664 400.67088694611766C174.0521471753279 349.94729146182056 187.66662417060104 349.8353559618081 239.52712757846223 287.98888206546167C291.3876309863235 226.14240816911519 333.76039417174206 107.49022893243858 414.3887883915105 103.80781224365427C495.01718261127894 100.12539555486995 596.6508877143237 151.18334981812802 626.5434198333517 270.31328195929655C656.4359519523796 389.4432141004652 622.4089276674016 607.8164095998313 557.8729425628449 675.6314865212629 "></path><path d="M614.6201100556814 277.13889709209263C642.9393510105499 389.99883280477866 610.7032227405708 596.8787022252308 549.5638684309909 661.1245645718502C488.42451412141077 725.3704269184695 392.12409140861064 613.973512565967 321.1512093696971 585.5190363558663C250.17832733078347 557.0645601457657 238.75830818980518 563.0604664415356 208.89403464420587 524.5430787633677C179.02976109860657 486.0256910851999 169.66122516408808 448.68950806473083 177.8026963508209 400.6355755006599C185.94416753755365 352.581642936589 198.84209311202295 352.4755987786825 247.97309634052306 293.884202455828C297.1040995690231 235.29280613297345 337.24671732363026 122.88547843506927 413.63151184762137 119.39687315095784C490.0163063716126 115.90826786684636 586.3008691008129 164.27896137940667 614.6201100556814 277.13889709209263C642.9393510105499 389.99883280477866 610.7032227405708 596.8787022252308 549.5638684309909 661.1245645718502 "></path><path d="M602.6967545016439 283.96451222488867C629.4427042923533 390.55445150909213 598.997472037373 585.9409948506302 541.2547485227694 646.6176426224374C483.5120250081661 707.2942903942446 392.5616257794104 602.0860935057699 325.53168163154766 575.2124215295637C258.50173748368485 548.3387495533575 247.71616385053863 554.001549943807 219.51101661302818 517.6240171366485C191.30586937551777 481.24648432948993 182.45780765958364 445.9845336990469 190.1469748914979 400.60026405520216C197.83614212341223 355.21599441135754 210.01751627707768 355.11584159555684 256.41901932621664 299.77952284619425C302.8205223753556 244.44320409683166 340.73299469915116 138.28072793769996 412.87418952736516 134.98593405826136C485.01538435557904 131.69114017882276 575.9508047109348 177.37457294068525 602.6967545016439 283.96451222488867C629.4427042923533 390.55445150909213 598.997472037373 585.9409948506302 541.2547485227694 646.6176426224374 "></path><path d="M590.7734294651848 290.7901426164739C615.9460880917345 391.11008547219467 587.2917518517531 575.0033027348188 532.9456591321264 632.1107359318139C478.5995664124996 689.2181691288089 392.9991906677884 590.1986897043621 329.91218441097635 564.9058219620504C266.8251781541643 539.6129542197386 256.6740500288503 544.9426487048676 230.12802909942866 510.70497076871834C203.58200817000704 476.4672928325692 195.25442067265732 443.27957459215213 202.4912839497531 400.5649678685336C209.72814722684893 357.85036114491504 221.19296995971047 357.75609967122034 264.86497282948835 305.67485849534967C308.53697569926624 253.593617319479 344.2193025922503 153.67599269911977 412.11689772468685 150.575010224354C480.0144928571235 147.47402774958823 565.6007708386348 190.47019976075296 590.7734294651848 290.7901426164739C615.9460880917345 391.11008547219467 587.2917518517531 575.0033027348188 532.9456591321264 632.1107359318139 "></path><path d="M578.8500739111473 297.61577300805897C602.4494413735378 391.6657194352972 575.5860011485552 564.0656106190074 524.6365392239051 617.6038292411902C473.68707729925495 671.1420478633731 393.4367250385883 578.3112859029542 334.292656672827 554.599222394537C275.14858830706567 530.8871588861198 265.63190568958373 535.8837474659281 240.74501106825096 503.7859244007882C215.85811644691825 471.6881013356483 208.05100316815282 440.5746154852575 214.83556249043016 400.529671681865C221.62012181270745 360.48472787847254 232.3683931247652 360.39635774688384 273.31089581518194 311.5701941445051C314.2533985055987 262.7440305421263 347.70557996777126 169.07125746053953 411.35957540443064 166.16408639044664C475.01357084108986 163.2569153203537 555.2507064487568 203.56582658082067 578.8500739111473 297.61577300805897C602.4494413735378 391.6657194352972 575.5860011485552 564.0656106190074 524.6365392239051 617.6038292411902 "></path><path d="M566.9267183571098 304.44137288206593C588.952794655341 392.22132288082173 563.8802504453572 553.1278879856178 516.3274193156838 603.0968920329885C468.7745881860104 653.0658960803592 393.87425940938806 566.4238515839681 338.6731289346776 544.2925923094455C283.47199845996704 522.1613330349228 274.5897613503172 526.8248157094105 251.36199303707332 496.8668475152799C228.1342247238294 466.90887932114936 220.84758566364837 437.8696258607845 227.17984103110723 400.4943449776183C233.51209639856603 363.119064094452 243.54381628981992 363.0365853049692 281.7568188008756 317.4654992760823C319.9698213119312 271.8944132471955 351.1918573432922 184.46649170438116 410.6022530841743 181.7531320389611C470.0126488250563 179.0397723735411 544.9006420588787 216.6614228833102 566.9267183571098 304.44137288206593C588.952794655341 392.22132288082173 563.8802504453572 553.1278879856178 516.3274193156838 603.0968920329885 "></path><path d="M555.0033933206505 311.26701853244015C575.4561784547222 392.77697210271333 552.1745302597374 542.1902111285955 508.0183299250407 588.5900006011539C463.8621295903439 634.9897900737124 394.31182429776607 554.5364630413493 343.0536317141063 533.9860080007211C291.7954391304465 513.4355529600928 283.54764752862883 517.76592972926 261.97900552347375 489.9478164061388C240.41036351831872 462.1297030830176 233.64419867672206 435.1646820126789 239.52415008936237 400.4590640497388C245.40410150200273 365.75344608679865 254.71926997245276 365.6768586394217 290.2027723041473 323.3608501840268C325.6862746358418 281.0448417286318 354.67816523639135 199.86177172458997 409.8449612814961 197.3422234638428C465.0117573266009 194.82267520309563 534.5506081865789 229.75706496216696 555.0033933206505 311.26701853244015C575.4561784547222 392.77697210271333 552.1745302597374 542.1902111285955 508.0183299250407 588.5900006011539 "></path><path d="M543.0800530254022 318.0926031476581C561.9595469953146 393.3325602894488 540.4687948153285 531.2524732364168 499.70922527560845 574.0830481341632C458.9496557358884 616.9136230319093 394.749373927355 542.6490134635742 347.43411923474594 523.6793626568406C300.1188645421369 504.7097118501067 292.50551844815135 508.7069827139535 272.59600275108517 483.0287242618415C252.68648705401898 457.3504658097296 246.44079643100662 432.45967712941683 251.8684438888285 400.4237220867029C257.29609134665037 368.387767043989 265.89470839629655 368.317070938718 298.64871054862994 329.25614005681496C331.4027127009633 290.19520917491195 358.16445787070137 215.25699070964254 409.08765422002887 212.93125385356825C460.0108505693563 210.6055169974939 524.2005590554899 242.85264600586743 543.0800530254022 318.0926031476581C561.9595469953146 393.3325602894488 540.4687948153285 531.2524732364168 499.70922527560845 574.0830481341632 "></path><path d="M531.156743247732 324.9182182804542C548.462946053485 393.88817899376227 528.7630898884977 520.3147658618163 491.40015114375433 559.5761261847504C454.03721239901097 598.8374865076845 395.186954074522 530.7615944033773 351.81463727296375 513.3727478305381C308.4423204714054 495.9839012576988 301.46341988525205 499.64806621622483 283.21303049627465 476.1096626351223C264.9626411072973 452.5712590540197 259.23742470286936 429.7547027637331 264.21276820587275 400.3884106412453C269.1881117088761 371.0221185187575 277.07017733771846 370.9573137555924 307.0946793106907 335.1514604471813C337.119181283663 299.3456071387702 361.6507810225895 230.65224021227323 408.33037767613973 228.52031476087177C455.00997432968984 226.3883893094703 513.850540441979 255.94825756714607 531.156743247732 324.9182182804542C548.462946053485 393.88817899376227 528.7630898884977 520.3147658618163 491.40015114375433 559.5761261847504 "></path><path d="M519.2333724349055 331.74383341325023C534.966284076499 394.4437976980758 517.0573239265107 509.3770584872159 483.0910159767441 545.0692042353378C449.12470802697726 580.7613499834597 395.6244731865328 518.8741753431805 356.19509427602526 503.06613300423555C316.76571536551774 487.25809066529087 310.42126028719645 490.5891497184964 293.82999720630795 469.19060100840306C277.23873412541946 447.79205229830984 272.03399193957586 427.0497283980492 276.55703148776075 400.35309919578765C281.0800710359456 373.656469993526 288.2455852439841 373.59755657246683 315.5405870375953 341.04678083754766C342.83558883120645 308.4960051026285 365.13704313932146 246.04748971490397 407.57304009709435 244.10937566817535C450.00903705486724 242.17126162144677 503.50046079331185 269.0438691284247 519.2333724349055 331.74383341325023C534.966284076499 394.4437976980758 517.0573239265107 509.3770584872159 483.0910159767441 545.0692042353378 "></path><path d="M507.3100321396571 338.5694485460463C521.4696526170914 394.99941640238933 505.35158848210176 498.43935111261544 474.78191132731183 530.5622822859251C444.2122341725218 562.6852134592348 396.0620228161217 506.9867562829835 360.57558179666495 492.75951817793316C325.0891407772082 478.5322800728828 319.37913120671897 481.53023322076774 304.4469944339193 462.27153938168385C289.5148576611197 443.01284554259996 284.8305896938605 424.3447540323654 288.9013252872268 400.31778775032996C292.97206088059323 376.2908214682945 299.42102366782785 376.23779938934126 323.98652528207793 346.942101227914C348.55202689632796 317.6464030664867 368.62333577363154 261.44273921753467 406.8157330356271 259.6984365754789C445.00813029762276 257.9541339334232 493.15041166222284 282.1394806897033 507.3100321396571 338.5694485460463C521.4696526170914 394.99941640238933 505.35158848210176 498.43935111261544 474.78191132731183 530.5622822859251 "></path><path d="M495.3866918444088 345.3950636788424C507.97302115768366 395.5550351067028 493.645853037693 487.5016437380149 466.4728066778796 516.0553603365124C439.2997603180662 544.6090769350099 396.4995724457106 495.0993372227865 364.9560693173046 482.45290335163065C333.41256618889855 469.8064694804748 328.33700212624154 472.4713167230393 315.06399166153074 455.35247775496464C301.7909811968199 438.2336387868901 297.62718744814504 421.63977966668153 301.24561908669295 400.28247630487226C304.8640507252409 378.925172943063 310.59646209167164 378.87804220621564 332.4324635265606 352.8374216182803C354.2684649614495 326.79680103034497 372.10962840794156 276.83798872016536 406.05842597415983 275.28749748278244C440.00722354037816 273.7370062453996 482.8003625311338 295.23509225098195 495.3866918444088 345.3950636788424C507.97302115768366 395.5550351067028 493.645853037693 487.5016437380149 466.4728066778796 516.0553603365124 "></path><path d="M483.4633515491604 352.22067881163844C494.47638969827597 396.11065381101633 481.94011759328407 476.5639363634143 458.16370202844735 501.54843838709974C434.3872864636107 526.532940410785 396.9371220752995 483.21191816258954 369.3365568379443 472.14628852532815C341.735991600589 461.08065888806686 337.29487304576406 463.41240022531065 325.6809888891421 448.4334161282454C314.0671047325202 433.45443203118015 310.42378520242966 418.9348053009977 313.5899128861591 400.2471648594146C316.7560405698885 381.5595244178315 321.7719005155154 381.5182850230901 340.87840177104323 358.7327420086466C359.98490302657103 335.9471989942032 375.5959210422516 292.23323822279605 405.30111891269263 290.876558390086C435.0063167831336 289.519878557376 472.4503134000448 308.3307038122606 483.4633515491604 352.22067881163844C494.47638969827597 396.11065381101633 481.94011759328407 476.5639363634143 458.16370202844735 501.54843838709974 "></path><path d="M471.5400417714902 359.0462939444345C480.9797887564464 396.66627251532987 470.2344126664533 465.62622898881386 449.8546278965933 487.04151643768705C429.4748431267333 508.4568038865601 397.37470222246657 471.32449910239256 373.71707487616203 461.83967369902575C350.0594475298575 452.3548482956588 346.25277448286477 454.3534837275822 336.29801663433165 441.5143545015262C326.3432587857985 428.67522527547027 323.2204134742924 416.2298309353139 325.93423720320334 400.21185341395693C328.6480609321142 384.1938758926 332.94736945693734 384.15852783996445 349.324370533104 364.62806239901295C365.7013716092707 345.09759695806144 379.0822441941398 307.62848772542674 404.5438423688035 306.4656192973896C430.0054405434672 305.30275086935245 462.100294786534 321.4263153735392 471.5400417714902 359.0462939444345C480.9797887564464 396.66627251532987 470.2344126664533 465.62622898881386 449.8546278965933 487.04151643768705 "></path><path d="M459.6167014762418 365.8719243360197C467.4831572970386 397.2219064784324 458.5286772220444 454.6885368730025 441.5455232471611 472.5346097470634C424.5623692722777 490.3806826211244 397.81225185205545 459.43709530098477 378.0975623968017 451.5330741315123C358.38287294154793 443.62905296203996 355.2106454023873 445.29458248864273 346.915013861943 434.59530813359606C338.6193823214988 423.89603377854945 336.01701122857696 413.5248718284191 338.2785310026694 400.17655722728836C340.54005077676186 386.82824262615753 344.1228078807811 386.79878591562795 357.7703087775867 370.52339804816836C371.4178096743923 354.2480101807088 382.5685368284498 323.0237524868465 403.78653530733624 322.05469546348223C425.0045337862227 321.0856384401179 451.750245655445 334.5219421936069 459.6167014762418 365.8719243360197C467.4831572970386 397.2219064784324 458.5286772220444 454.6885368730025 441.5455232471611 472.5346097470634 "></path><path d="M447.69336118099346 372.69752421002664C453.9865258376309 397.77750992395687 446.82294177763555 443.7508142396129 433.23641859772886 458.0276725388617C419.64989541782217 472.3045308381104 398.24980148164434 447.5496609819987 382.47804991744135 441.2264440464208C366.70629835323837 434.90322711084286 364.1685163219098 436.2356507321251 357.53201108955443 427.6762312480878C350.89550585719905 419.1168117640505 348.8136089828616 410.81988220394624 350.62282480213554 400.1412305230416C352.4320406214095 389.46257884213696 355.2982463046249 389.4390134737133 366.21624702206935 376.41870317974565C377.1342477395138 363.3983928857779 386.0548294627598 338.4189867306881 403.029228245869 337.6437411119967C420.00362702897814 336.86849549330526 441.400196524356 347.6175384960965 447.69336118099346 372.69752421002664C453.9865258376309 397.77750992395687 446.82294177763555 443.7508142396129 433.23641859772886 458.0276725388617 "></path><path d="M435.7700208857451 379.5231546016118C440.4898943782232 398.33314388705946 435.11720633322665 432.81312212380146 424.9273139482966 443.52076584823806C414.73742156336664 454.2284095726746 398.6873511112333 435.6622571805908 386.85853743808104 430.9198444789074C375.02972376492875 426.17743177722394 373.1263872414324 427.17674949318564 368.1490083171658 420.75718488015764C363.17162939289926 414.33762026712964 361.6102067371462 408.1149230970515 362.96711860160167 400.105934336373C364.32403046605714 392.0969455756945 366.47368472846864 392.07927154937676 374.662185266552 382.314038828901C382.85068580463536 372.54880610842525 389.5411220970699 353.8142514921079 402.2719211844017 353.2328172780893C415.0027202717336 352.6513830640707 431.050147393267 360.7131653161641 435.7700208857451 379.5231546016118C440.4898943782232 398.33314388705946 435.11720633322665 432.81312212380146 424.9273139482966 443.52076584823806 "></path><path d="M423.8466805904967 386.3487697344079C426.99326291881545 398.888762591373 423.41147088881775 421.875414749201 416.61820929886443 429.01384389882537C409.82494770891105 436.15227304844973 399.12490074082217 423.7748381203939 391.2390249587207 420.61322965260496C383.3531491766192 417.45162118481596 382.0842581609549 418.1178329954571 378.7660055447772 413.8381232534384C375.4477529285995 409.55841351141976 374.4068044914308 405.40994873136765 375.3114124010678 400.07062289091533C376.2160203107047 394.731297050463 377.6491231523124 394.7195143662512 383.1081235110347 388.20935921926736C388.5671238697569 381.6992040722835 393.0274147313799 369.2095009947386 401.5146141229345 368.8218781853929C410.0018135144891 368.4342553760472 420.700098262178 373.80877687744277 423.8466805904967 386.3487697344079C426.99326291881545 398.888762591373 423.41147088881775 421.875414749201 416.61820929886443 429.01384389882537 "></path><path d="M411.92334029524835 393.1743848672039C413.49663145940775 399.44438129568647 411.7057354444089 410.9377073746005 408.30910464943224 414.5069219494127C404.9124738544555 418.07613652422486 399.5624503704111 411.887419060197 395.6195124793603 410.30661482630245C391.67657458830956 408.725810592408 391.0421290804775 409.05891649772855 389.3830027723886 406.9190616267192C387.72387646429974 404.7792067557099 387.2034022457154 402.7049743656838 387.65570620053387 400.0353114454577C388.10801015535236 397.3656485252315 388.8245615761562 397.35975718312557 391.55406175551735 394.10467960963365C394.28356193487843 390.84960203614173 396.51370736569 384.6047504973693 400.75730706146726 384.4109390926964C405.00090675724454 384.2171276880236 410.350049131089 386.90438843872136 411.92334029524835 393.1743848672039C413.49663145940775 399.44438129568647 411.7057354444089 410.9377073746005 408.30910464943224 414.5069219494127 "></path></g></svg>