<svg width="406" height="112" viewBox="0 0 406 112" fill="none" xmlns="http://www.w3.org/2000/svg">
<path d="M99.6585 81.6621C99.6585 85.7597 98.878 89.6377 97.3171 93.2963C95.7561 96.906 93.6098 100.052 90.878 102.735C88.1951 105.418 85.0244 107.54 81.3659 109.101C77.7561 110.662 73.878 111.443 69.7317 111.443C66.0244 111.443 62.4634 110.808 59.0488 109.54C55.6341 108.223 52.5366 106.321 49.7561 103.833C47.0244 106.321 43.9512 108.223 40.5366 109.54C37.1707 110.808 33.6098 111.443 29.8537 111.443C25.7073 111.443 21.8293 110.662 18.2195 109.101C14.6098 107.54 11.439 105.418 8.70732 102.735C6.02439 100.052 3.90244 96.906 2.34146 93.2963C0.780488 89.6377 0 85.7597 0 81.6621V31.7597H19.9756V81.6621C19.9756 83.028 20.2195 84.3207 20.7073 85.5402C21.2439 86.7109 21.9512 87.7597 22.8293 88.6865C23.7561 89.5646 24.8049 90.2719 25.9756 90.8085C27.1951 91.2963 28.4878 91.5402 29.8537 91.5402C31.2195 91.5402 32.5122 91.2963 33.7317 90.8085C34.9512 90.2719 36.0244 89.5646 36.9512 88.6865C37.878 87.7597 38.5854 86.7109 39.0732 85.5402C39.6098 84.3207 39.878 83.028 39.878 81.6621V31.7597H59.7805V81.6621C59.7805 83.028 60.0488 84.3207 60.5854 85.5402C61.122 86.7109 61.8293 87.7597 62.7073 88.6865C63.6341 89.5646 64.6829 90.2719 65.8537 90.8085C67.0732 91.2963 68.3659 91.5402 69.7317 91.5402C71.0976 91.5402 72.3902 91.2963 73.6098 90.8085C74.8293 90.2719 75.878 89.5646 76.7561 88.6865C77.6829 87.7597 78.4146 86.7109 78.9512 85.5402C79.4878 84.3207 79.7561 83.028 79.7561 81.6621V47.7441H99.6585V81.6621Z" fill="white"/>
<path d="M102.805 13.7597C102.805 15.6134 102.439 17.3451 101.707 18.9548C101.024 20.5646 100.073 21.9792 98.8537 23.1987C97.6341 24.3695 96.1951 25.3207 94.5366 26.0524C92.9268 26.7353 91.1951 27.0768 89.3415 27.0768C87.4878 27.0768 85.7317 26.7353 84.0732 26.0524C82.4634 25.3207 81.0488 24.3695 79.8293 23.1987C78.6585 21.9792 77.7073 20.5646 76.9756 18.9548C76.2927 17.3451 75.9512 15.6134 75.9512 13.7597C75.9512 11.9548 76.2927 10.2475 76.9756 8.63775C77.7073 6.97921 78.6585 5.56458 79.8293 4.39385C81.0488 3.17433 82.4634 2.22311 84.0732 1.54019C85.7317 0.808481 87.4878 0.442627 89.3415 0.442627C91.1951 0.442627 92.9268 0.808481 94.5366 1.54019C96.1951 2.22311 97.6341 3.17433 98.8537 4.39385C100.073 5.56458 101.024 6.97921 101.707 8.63775C102.439 10.2475 102.805 11.9548 102.805 13.7597Z" fill="white"/>
<path d="M184.082 47.1987L169.448 61.906C168.716 59.8573 167.716 58.028 166.448 56.4182C165.18 54.7597 163.74 53.3695 162.131 52.2475C160.57 51.1256 158.862 50.2719 157.009 49.6865C155.155 49.1012 153.253 48.8085 151.301 48.8085C148.57 48.8085 145.984 49.3695 143.545 50.4914C141.155 51.6134 139.058 53.1987 137.253 55.2475C135.497 57.2475 134.106 59.6377 133.082 62.4182C132.058 65.1987 131.545 68.2719 131.545 71.6377C131.545 74.3695 132.058 76.9304 133.082 79.3207C134.106 81.7109 135.497 83.8085 137.253 85.6134C139.058 87.4182 141.155 88.8329 143.545 89.8573C145.984 90.8817 148.57 91.3938 151.301 91.3938C153.253 91.3938 155.131 91.1256 156.936 90.589C158.74 90.0524 160.423 89.2963 161.984 88.3207C163.594 87.2963 165.009 86.0768 166.228 84.6621C167.497 83.1987 168.521 81.589 169.301 79.8329L183.936 94.5402C182.082 97.1743 179.936 99.5402 177.497 101.638C175.106 103.735 172.497 105.516 169.667 106.979C166.887 108.443 163.936 109.54 160.814 110.272C157.74 111.052 154.57 111.443 151.301 111.443C145.789 111.443 140.594 110.418 135.716 108.369C130.887 106.272 126.643 103.418 122.984 99.8085C119.375 96.1987 116.521 91.9792 114.423 87.1499C112.326 82.3207 111.277 77.1499 111.277 71.6377C111.277 65.6377 112.326 60.028 114.423 54.8085C116.521 49.589 119.375 45.0524 122.984 41.1987C126.643 37.2963 130.887 34.2231 135.716 31.9792C140.594 29.7353 145.789 28.6134 151.301 28.6134C154.57 28.6134 157.765 29.028 160.887 29.8573C164.058 30.6865 167.058 31.906 169.887 33.5158C172.765 35.0768 175.399 37.0036 177.789 39.2963C180.228 41.589 182.326 44.2231 184.082 47.1987Z" fill="white"/>
<path d="M214.009 109.979H193.887V0.442627H214.009V69.5158L243.789 31.7597H266.765L240.789 64.3938L266.765 109.979H243.789L227.911 81.5158L214.009 99.9548V109.979Z" fill="white"/>
<path d="M300.353 90.8085C301.134 91.0524 301.914 91.2231 302.695 91.3207C303.475 91.3695 304.256 91.3938 305.036 91.3938C306.987 91.3938 308.865 91.1256 310.67 90.589C312.475 90.0524 314.158 89.2963 315.719 88.3207C317.329 87.2963 318.743 86.0768 319.963 84.6621C321.231 83.1987 322.256 81.589 323.036 79.8329L337.67 94.5402C335.817 97.1743 333.67 99.5402 331.231 101.638C328.841 103.735 326.231 105.516 323.402 106.979C320.621 108.443 317.67 109.54 314.548 110.272C311.475 111.052 308.304 111.443 305.036 111.443C299.524 111.443 294.329 110.418 289.451 108.369C284.621 106.321 280.378 103.467 276.719 99.8085C273.109 96.1499 270.256 91.8085 268.158 86.7841C266.06 81.7109 265.012 76.1499 265.012 70.1012C265.012 63.906 266.06 58.2475 268.158 53.1256C270.256 48.0036 273.109 43.6377 276.719 40.028C280.378 36.4182 284.621 33.6134 289.451 31.6134C294.329 29.6134 299.524 28.6134 305.036 28.6134C308.304 28.6134 311.5 29.0036 314.621 29.7841C317.743 30.5646 320.695 31.6865 323.475 33.1499C326.304 34.6134 328.939 36.4182 331.378 38.5646C333.817 40.6621 335.963 43.028 337.817 45.6621L300.353 90.8085ZM310.597 49.6134C309.67 49.2719 308.743 49.0524 307.817 48.9548C306.939 48.8573 306.012 48.8085 305.036 48.8085C302.304 48.8085 299.719 49.3207 297.28 50.3451C294.89 51.3207 292.792 52.7353 290.987 54.589C289.231 56.4426 287.841 58.6865 286.817 61.3207C285.792 63.906 285.28 66.8329 285.28 70.1012C285.28 70.8329 285.304 71.6621 285.353 72.589C285.451 73.5158 285.573 74.467 285.719 75.4426C285.914 76.3695 286.134 77.2719 286.378 78.1499C286.621 79.028 286.939 79.8085 287.329 80.4914L310.597 49.6134Z" fill="white"/>
<path d="M390.204 109.979C385.375 109.979 380.838 109.077 376.594 107.272C372.35 105.418 368.619 102.906 365.399 99.7353C362.228 96.5158 359.716 92.7841 357.862 88.5402C356.058 84.2963 355.155 79.7597 355.155 74.9304V48.5158H345.662V28.6134H355.155V0.442627H375.058V28.6134H405.35V48.5158H375.058V74.9304C375.058 77.028 375.448 79.0036 376.228 80.8573C377.009 82.6621 378.082 84.2475 379.448 85.6134C380.814 86.9792 382.423 88.0768 384.277 88.906C386.131 89.6865 388.106 90.0768 390.204 90.0768H405.35V109.979H390.204Z" fill="white"/>
</svg>
