<svg width="1093" height="307" viewBox="0 0 1093 307" fill="none" xmlns="http://www.w3.org/2000/svg">
<g filter="url(#filter0_d_405_1855)">
<path d="M510.599 111.019C517.687 119.109 515.972 131.129 508.391 138.759L493.85 153.394C488.327 158.952 478.724 156.773 473.879 150.615C470.472 146.152 466.605 142.411 462.28 139.392C458.086 136.374 453.499 134.077 448.518 132.502C443.538 130.927 438.426 130.139 433.184 130.139C425.844 130.139 418.898 131.648 412.344 134.667C405.922 137.686 400.286 141.952 395.437 147.465C390.719 152.846 386.983 159.278 384.231 166.759C381.478 174.241 380.102 182.51 380.102 191.566C380.102 198.916 381.478 205.807 384.231 212.239C386.983 218.67 390.719 224.314 395.437 229.171C400.286 234.027 405.922 237.833 412.344 240.59C418.898 243.346 425.844 244.724 433.184 244.724C438.426 244.724 443.472 244.002 448.322 242.559C453.171 241.115 457.693 239.08 461.887 236.455C466.212 233.699 470.013 230.418 473.29 226.611C478.155 220.989 487.198 219.305 492.438 224.579L506.542 238.774C514.83 247.115 516.141 260.453 507.646 268.583C506.322 269.851 504.962 271.086 503.566 272.288C497.143 277.932 490.131 282.723 482.53 286.66C475.059 290.598 467.13 293.551 458.741 295.52C450.484 297.62 441.965 298.67 433.184 298.67C418.373 298.67 404.415 295.914 391.308 290.401C378.333 284.757 366.93 277.079 357.1 267.366C347.401 257.653 339.734 246.299 334.098 233.305C328.463 220.311 325.645 206.398 325.645 191.566C325.645 175.422 328.463 160.328 334.098 146.283C339.734 132.239 347.401 120.032 357.1 109.663C366.93 99.1629 378.333 90.8939 391.308 84.8562C404.415 78.8184 418.373 75.7996 433.184 75.7996C441.965 75.7996 450.55 76.9152 458.938 79.1466C467.457 81.3779 475.518 84.6593 483.12 88.9907C490.852 93.1908 497.93 98.3754 504.352 104.544C506.536 106.6 508.619 108.759 510.599 111.019Z" fill="#334EC7"/>
<path d="M591.679 267.76C591.679 282.656 579.573 294.732 564.677 294.732C549.747 294.732 537.615 282.63 537.615 267.7V27.0322C537.615 12.1028 549.717 0 564.647 0C579.576 0 591.679 12.1027 591.679 27.0322V185.857L664.446 93.468C669.023 87.6571 676.012 84.2655 683.408 84.2655C703.612 84.2655 714.875 107.605 702.304 123.422L663.634 172.075L710.673 254.744C720.822 272.581 707.94 294.732 687.418 294.732C677.711 294.732 668.766 289.476 664.043 280.997L629.033 218.145L591.679 267.76Z" fill="#334EC7"/>
<path d="M817.741 243.149C819.838 243.806 821.935 244.265 824.032 244.527C826.129 244.659 828.226 244.724 830.323 244.724C835.565 244.724 840.611 244.002 845.461 242.559C850.31 241.115 854.832 239.08 859.026 236.455C863.351 233.699 867.152 230.418 870.429 226.611C875.294 220.989 884.337 219.305 889.577 224.579L903.681 238.774C911.969 247.115 913.28 260.453 904.785 268.583C903.461 269.851 902.101 271.086 900.705 272.288C894.283 277.932 887.271 282.723 879.669 286.66C872.198 290.598 864.269 293.551 855.881 295.52C847.624 297.62 839.104 298.67 830.323 298.67C815.513 298.67 801.554 295.914 788.448 290.401C775.472 284.888 764.069 277.21 754.24 267.366C744.541 257.522 736.873 245.84 731.237 232.321C725.602 218.67 722.784 203.707 722.784 187.432C722.784 170.762 725.602 155.537 731.237 141.755C736.873 127.973 744.541 116.226 754.24 106.513C764.069 96.8003 775.472 89.2532 788.448 83.8718C801.554 78.4903 815.513 75.7996 830.323 75.7996C839.104 75.7996 847.689 76.8496 856.077 78.9497C864.465 81.0498 872.395 84.0686 879.865 88.0063C887.467 91.9439 894.545 96.8003 901.098 102.576C912.656 112.53 911.647 129.821 901.915 141.566L817.741 243.149ZM845.264 132.305C842.774 131.386 840.284 130.795 837.794 130.533C835.434 130.27 832.944 130.139 830.323 130.139C822.983 130.139 816.037 131.517 809.483 134.274C803.061 136.899 797.425 140.705 792.576 145.693C787.858 150.68 784.122 156.718 781.37 163.806C778.618 170.762 777.241 178.638 777.241 187.432C777.241 189.4 777.307 191.632 777.438 194.126C777.7 196.62 778.028 199.179 778.421 201.804C778.945 204.298 779.535 206.726 780.19 209.089C780.846 211.451 781.698 213.551 782.746 215.389L845.264 132.305Z" fill="#334EC7"/>
<path d="M1048.11 294.732C1035.13 294.732 1022.94 292.304 1011.54 287.448C1000.14 282.46 990.109 275.7 981.459 267.169C972.94 258.506 966.19 248.465 961.209 237.046C956.36 225.627 953.935 213.42 953.935 200.426V137.817C939.494 137.817 927.788 126.111 927.788 111.67V110.413C927.788 95.9722 939.494 84.2655 953.935 84.2655V26.7373C953.935 11.9707 965.906 0 980.673 0C995.439 0 1007.41 11.9707 1007.41 26.7373V84.2655H1062.03C1076.81 84.2655 1088.8 96.2535 1088.8 111.041C1088.8 125.829 1076.81 137.817 1062.03 137.817H1007.41V200.426C1007.41 206.07 1008.46 211.386 1010.56 216.373C1012.65 221.23 1015.54 225.496 1019.21 229.171C1022.88 232.846 1027.2 235.799 1032.18 238.03C1037.16 240.13 1042.47 241.18 1048.11 241.18H1062.03C1076.81 241.18 1088.8 253.168 1088.8 267.956C1088.8 282.744 1076.81 294.732 1062.03 294.732H1048.11Z" fill="#334EC7"/>
<path d="M302.337 29.5229C302.337 45.828 289.119 59.0459 272.814 59.0459C256.509 59.0459 243.291 45.828 243.291 29.5229C243.291 13.2179 256.509 0 272.814 0C289.119 0 302.337 13.2179 302.337 29.5229Z" fill="#334EC7"/>
<path fill-rule="evenodd" clip-rule="evenodd" d="M302.337 207.324C302.337 219.847 300.001 231.699 295.328 242.88C290.655 253.911 284.229 263.527 276.052 271.726C268.02 279.926 258.528 286.411 247.576 291.181C236.77 295.952 225.161 298.337 212.748 298.337C201.65 298.337 190.99 296.399 180.768 292.523C170.546 288.498 161.273 282.684 152.949 275.081C130.695 253.161 123.963 220.776 123.379 207.324V89.3262C123.379 72.8737 136.716 59.5363 153.168 59.5363C169.621 59.5363 182.958 72.8737 182.958 89.3262V207.324C182.958 211.498 183.762 215.449 185.368 219.176C186.974 222.754 189.092 225.959 191.72 228.792C194.495 231.475 197.634 233.637 201.139 235.277C204.79 236.767 208.659 237.513 212.748 237.513C216.837 237.513 220.707 236.767 224.358 235.277C228.008 233.637 231.148 231.475 233.776 228.792C236.551 225.959 238.741 222.754 240.348 219.176C241.954 215.449 242.757 211.498 242.757 207.324V161.075C242.757 144.623 256.095 131.285 272.547 131.285C289 131.285 302.337 144.623 302.337 161.075V207.324Z" fill="#334EC7"/>
<path d="M125.35 292.523C115.274 296.399 104.614 298.337 93.3697 298.337C80.9572 298.337 69.3479 295.952 58.5418 291.181C47.7357 286.411 38.2438 279.926 30.0662 271.726C22.0346 263.527 15.6823 253.911 11.0094 242.88C6.33646 231.699 4 219.847 4 207.324V29.8994C4 13.3864 17.3864 0 33.8994 0C50.4124 0 63.7988 13.3864 63.7988 29.8994V207.324C63.7988 211.498 64.529 215.449 65.9893 219.176C67.5956 222.754 69.713 225.959 72.3415 228.792C75.1161 231.475 78.2557 233.637 81.7604 235.277C85.4111 236.767 89.2809 237.513 93.3697 237.513C97.4585 237.513 101.328 236.767 104.979 235.277C108.63 233.637 111.842 231.475 114.617 228.792C117.391 225.959 119.509 222.754 120.969 219.176C120.307 227.671 124.681 251.685 147.471 279.786C140.723 285.127 133.35 289.373 125.35 292.523Z" fill="#293E9E"/>
</g>
<defs>
<filter id="filter0_d_405_1855" x="0" y="0" width="1092.8" height="306.67" filterUnits="userSpaceOnUse" color-interpolation-filters="sRGB">
<feFlood flood-opacity="0" result="BackgroundImageFix"/>
<feColorMatrix in="SourceAlpha" type="matrix" values="0 0 0 0 0 0 0 0 0 0 0 0 0 0 0 0 0 0 127 0" result="hardAlpha"/>
<feOffset dy="4"/>
<feGaussianBlur stdDeviation="2"/>
<feComposite in2="hardAlpha" operator="out"/>
<feColorMatrix type="matrix" values="0 0 0 0 0.11832 0 0 0 0 0.18096 0 0 0 0 0.46168 0 0 0 0.4 0"/>
<feBlend mode="normal" in2="BackgroundImageFix" result="effect1_dropShadow_405_1855"/>
<feBlend mode="normal" in="SourceGraphic" in2="effect1_dropShadow_405_1855" result="shape"/>
</filter>
</defs>
</svg>
